{"title":"Oru Melliya Kodu Tamil 2016 DesiSCR x264-HDF.mp4","uid":15691325,"size":803260151,"categoryP":"video","categoryS":"movies","magnet":"?xt=urn:btih:fc1013469adc9d868643a1d2a9f00f0a714ef0a3&amp;dn=Oru+Melliya+Kodu+Tamil+2016+DesiSCR+x264-HDF.mp4&amp;tr=udp%3A%2F%2Ftracker.leechers-paradise.org%3A6969&amp;tr=udp%3A%2F%2Fzer0day.ch%3A1337&amp;tr=udp%3A%2F%2Fopen.demonii.com%3A1337&amp;tr=udp%3A%2F%2Ftracker.coppersurfer.tk%3A6969&amp;tr=udp%3A%2F%2Fexodus.desync.com%3A6969","seeders":0,"leechers":2,"uploader":null,"files":1,"time":1472405736,"description":"http://www.movierulzfull.in/ presents:\r\n\r\nOru Melliya Kodu Tamil 2016 DesiSCR x264-HDF.mp4\r\n\r\nScreens:\r\n \nhttp://extraimago.com/images/2016/08/28/wSoC.png \nhttp://extraimago.com/images/2016/08/28/wSoY.png \nhttp://extraimago.com/images/2016/08/28/wSop.png \nhttp://extraimago.com/images/2016/08/28/wSor.png \nhttp://extraimago.com/images/2016/08/28/wSoG.png\r\n\r\nFormat                                   : MPEG-4\r\nFormat profile                           : Base Media / Version 2\r\nCodec ID                                 : mp42 (isom/iso2/avc1/mp41)\r\nFile size                                : 766 MiB\r\nDuration                                 : 1 h 56 min\r\nOverall bit rate mode                    : Variable\r\nOverall bit rate                         : 920 kb/s\r\nEncoded date                             : UTC 2016-07-02 22:39:31\r\nTagged date                              : UTC 2016-07-02 22:39:31\r\nWriting application                      : HandBrake 0.10.5 2016021100\r\n\r\nVideo\r\nID                                       : 1\r\nFormat                                   : AVC\r\nFormat/Info                              : Advanced Video Codec\r\nFormat profile                           :   \r\nFormat settings, CABAC                   : Yes\r\nFormat settings, ReFrames                : 4 frames\r\nCodec ID                                 : avc1\r\nCodec ID/Info                            : Advanced Video Coding\r\nDuration                                 : 1 h 56 min\r\nBit rate                                 : 881 kb/s\r\nWidth                                    : 352 pixels\r\nHeight                                   : 178 pixels\r\nDisplay aspect ratio                     : 2.40:1\r\nFrame rate mode                          : Variable\r\nFrame rate                               : 29.970 FPS\r\nMinimum frame rate                       : 15.152 FPS\r\nMaximum frame rate                       : 30.303 FPS\r\nColor space                              : YUV\r\nChroma subsampling                       : 4:2:0\r\nBit depth                                : 8 bits\r\nScan type                                : Progressive\r\nBits/(Pixel*Frame)                       : 0.469\r\nStream size                              : 732 MiB (96%)\r\nWriting library                          : x264 core 142 r2491 24e4fed\r\nEncoding settings                        : cabac=1 / ref=3 / deblock=1:0:0 / analyse=0x3:0x113 / me=hex / subme=7 / psy=1 / psy_rd=1.00:0.00 / mixed_ref=1 / me_range=16 / chroma_me=1 / trellis=1 / 8x8dct=1 / cqm=0 / deadzone=21,11 / fast_pskip=1 / chroma_qp_offset=-2 / threads=12 / lookahead_threads=1 / sliced_threads=0 / nr=0 / decimate=1 / interlaced=0 / bluray_compat=0 / constrained_intra=0 / bframes=3 / b_pyramid=2 / b_adapt=1 / b_bias=0 / direct=1 / weightb=1 / open_gop=0 / weightp=2 / keyint=300 / keyint_min=30 / scenecut=40 / intra_refresh=0 / rc_lookahead=40 / rc=abr / mbtree=1 / bitrate=881 / ratetol=1.0 / qcomp=0.60 / qpmin=0 / qpmax=69 / qpstep=4 / vbv_maxrate=17500 / vbv_bufsize=17500 / nal_hrd=none / filler=0 / ip_ratio=1.40 / aq=1:1.00\r\nEncoded date                             : UTC 2016-07-02 22:39:31\r\nTagged date                              : UTC 2016-07-02 22:39:31\r\nColor range                              : Limited\r\nColor primaries                          : BT.601 NTSC\r\nTransfer characteristics                 : BT.709\r\nMatrix coefficients                      : BT.601\r\n\r\nAudio\r\nID                                       : 2\r\nFormat                                   : AAC\r\nFormat/Info                              : Advanced Audio Codec\r\nFormat profile                           : LC\r\nCodec ID                                 : 40\r\nDuration                                 : 1 h 56 min\r\nBit rate mode                            : Variable\r\nBit rate                                 : 32.3 kb/s\r\nChannel(s)                               : 2 channels\r\nChannel(s)_Original                      : 1 channel\r\nChannel positions                        : Front: C\r\nSampling rate                            : 48.0 kHz\r\nFrame rate                               : 46.875 FPS (1024 spf)\r\nCompression mode                         : Lossy\r\nStream size                              : 26.9 MiB (4%)\r\nTitle                                    : Mono / Mono\r\nDefault                                  : Yes\r\nAlternate group                          : 1\r\nEncoded date                             : UTC 2016-07-02 22:39:31\r\nTagged date                              : UTC 2016-07-02 22:39:31\r\n\r\n \nhttp://www.movierulzfull.in/oru-melliya-kodu-full-movie-watch/\r\n \nhttp://tvmoviereviews.drupalgardens.com/content/oru-melliya-kodu-review","torrent":{"xt":"urn:btih:fc1013469adc9d868643a1d2a9f00f0a714ef0a3","amp;dn":"Oru+Melliya+Kodu+Tamil+2016+DesiSCR+x264-HDF.mp4","amp;tr":["udp%3A%2F%2Ftracker.leechers-paradise.org%3A6969","udp%3A%2F%2Fzer0day.ch%3A1337","udp%3A%2F%2Fopen.demonii.com%3A1337","udp%3A%2F%2Ftracker.coppersurfer.tk%3A6969","udp%3A%2F%2Fexodus.desync.com%3A6969"],"infoHash":"fc1013469adc9d868643a1d2a9f00f0a714ef0a3","infoHashBuffer":{"type":"Buffer","data":[252,16,19,70,154,220,157,134,134,67,161,210,169,240,15,10,113,78,240,163]},"announce":[],"urlList":[]}}